<?xml version="1.0" encoding="UTF-8"?>
<svg xmlns="http://www.w3.org/2000/svg" viewBox="0 0 960 262" role="img">
<defs><linearGradient id="insights-light-bg" x1="0" x2="1" y1="0" y2="1"><stop offset="0%" stop-color="#f7f9fc"/><stop offset="100%" stop-color="#ffffff"/></linearGradient><linearGradient id="insights-light-accent" x1="0" x2="1"><stop offset="0%" stop-color="#2563eb"/><stop offset="100%" stop-color="#7c3aed"/></linearGradient><radialGradient id="insights-light-glow" cx="78%" cy="42%" r="48%"><stop offset="0%" stop-color="#2563eb" stop-opacity=".16"/><stop offset="100%" stop-color="#2563eb" stop-opacity="0"/></radialGradient></defs>
<rect x="8" y="8" width="944" height="246" rx="22" fill="url(#insights-light-bg)" stroke="#d8e0ea" stroke-width="1"/>
<text x="34" y="44" font-family="Inter, -apple-system, BlinkMacSystemFont, Segoe UI, Arial, sans-serif" font-size="22" font-weight="750" fill="#172033" text-anchor="start">Portfolio Insights</text>
<rect x="28" y="66" width="210" height="154" rx="16" fill="#f3f6fa" stroke="#d8e0ea" stroke-width="1"/>
<text x="46" y="96" font-family="Inter, -apple-system, BlinkMacSystemFont, Segoe UI, Arial, sans-serif" font-size="13" font-weight="650" fill="#8793a5" text-anchor="start">Repositories</text>
<text x="46" y="142" font-family="Inter, -apple-system, BlinkMacSystemFont, Segoe UI, Arial, sans-serif" font-size="28" font-weight="800" fill="#172033" text-anchor="start">15</text>
<text x="46" y="174" font-family="Inter, -apple-system, BlinkMacSystemFont, Segoe UI, Arial, sans-serif" font-size="12" font-weight="400" fill="#56657a" text-anchor="start">public, non-archived</text>
<path d="M 46 202 L 80 193 L 114 198 L 148 182 L 182 188 L 218 176" fill="none" stroke="#2563eb" stroke-width="2.5"/>
<rect x="258" y="66" width="210" height="154" rx="16" fill="#f3f6fa" stroke="#d8e0ea" stroke-width="1"/>
<text x="276" y="96" font-family="Inter, -apple-system, BlinkMacSystemFont, Segoe UI, Arial, sans-serif" font-size="13" font-weight="650" fill="#8793a5" text-anchor="start">Commits</text>
<text x="276" y="142" font-family="Inter, -apple-system, BlinkMacSystemFont, Segoe UI, Arial, sans-serif" font-size="28" font-weight="800" fill="#172033" text-anchor="start">15</text>
<text x="276" y="174" font-family="Inter, -apple-system, BlinkMacSystemFont, Segoe UI, Arial, sans-serif" font-size="12" font-weight="400" fill="#56657a" text-anchor="start">last 12 months</text>
<path d="M 276 202 L 310 193 L 344 198 L 378 182 L 412 188 L 448 176" fill="none" stroke="#7c3aed" stroke-width="2.5"/>
<rect x="488" y="66" width="210" height="154" rx="16" fill="#f3f6fa" stroke="#d8e0ea" stroke-width="1"/>
<text x="506" y="96" font-family="Inter, -apple-system, BlinkMacSystemFont, Segoe UI, Arial, sans-serif" font-size="13" font-weight="650" fill="#8793a5" text-anchor="start">Top Language</text>
<text x="506" y="142" font-family="Inter, -apple-system, BlinkMacSystemFont, Segoe UI, Arial, sans-serif" font-size="20" font-weight="800" fill="#172033" text-anchor="start">Jupyter Notebook</text>
<text x="506" y="174" font-family="Inter, -apple-system, BlinkMacSystemFont, Segoe UI, Arial, sans-serif" font-size="12" font-weight="400" fill="#56657a" text-anchor="start">by GitHub language bytes</text>
<path d="M 506 202 L 540 193 L 574 198 L 608 182 L 642 188 L 678 176" fill="none" stroke="#2563eb" stroke-width="2.5"/>
<rect x="718" y="66" width="210" height="154" rx="16" fill="#f3f6fa" stroke="#d8e0ea" stroke-width="1"/>
<text x="736" y="96" font-family="Inter, -apple-system, BlinkMacSystemFont, Segoe UI, Arial, sans-serif" font-size="13" font-weight="650" fill="#8793a5" text-anchor="start">Longest Streak</text>
<text x="736" y="142" font-family="Inter, -apple-system, BlinkMacSystemFont, Segoe UI, Arial, sans-serif" font-size="28" font-weight="800" fill="#172033" text-anchor="start">5 days</text>
<text x="736" y="174" font-family="Inter, -apple-system, BlinkMacSystemFont, Segoe UI, Arial, sans-serif" font-size="12" font-weight="400" fill="#56657a" text-anchor="start">all-time contribution activity</text>
<path d="M 736 202 L 770 193 L 804 198 L 838 182 L 872 188 L 908 176" fill="none" stroke="#7c3aed" stroke-width="2.5"/>
</svg>